<svg width="200" height="81" viewBox="0 0 200 81" fill="none" xmlns="http://www.w3.org/2000/svg">
<g clip-path="url(#clip0_17749_3124)">
<path d="M33.9503 81C30.9381 81 27.926 80.3911 24.7449 79.1166C19.9592 77.2191 15.6098 74.2736 11.8094 70.3511C6.60145 64.9841 3.15293 58.5409 1.57647 51.2339C1.05567 48.7841 0.67563 46.2635 0.422269 43.4879C0.112606 40.1601 -0.0281494 36.6058 1.74507e-06 32.6549C0.0140773 30.1343 0.0563041 27.472 0.112606 24.739C0.154833 23.0114 0.211136 21.2979 0.253362 19.5703V19.2163C0.309665 17.6727 0.351891 16.115 0.394118 14.5715C0.436345 12.8014 0.464496 11.0313 0.492647 9.27535L0.534874 6.88217C0.534874 6.7972 0.534874 6.7264 0.534874 6.65559V3.90839L2.96995 3.45525C3.40629 3.37028 4.60272 3.15787 4.60272 3.15787H4.65902C5.86952 2.91713 7.12225 2.69056 8.3609 2.47815C10.3878 2.13829 12.4147 1.81259 14.3993 1.52937C15.9054 1.31696 17.51 1.10455 19.4525 0.892133C21.3808 0.679721 22.9573 0.523951 24.4493 0.396504C26.1947 0.254895 27.8978 0.127448 29.6432 0.0849653C31.3745 0.0424828 32.8946 0.0141611 34.2881 0.0141611C35.0623 0.0141611 35.8224 0.0141611 36.5825 0.0424828C38.7219 0.0849653 40.8192 0.226574 42.7757 0.382343C44.4929 0.509791 46.2805 0.679721 48.2511 0.906294C50.3906 1.16119 52.3049 1.41608 54.1065 1.68514C56.0349 1.98252 58.0196 2.33654 59.7649 2.63392L60.8065 2.81801C61.4399 2.93129 62.0733 3.05874 62.6364 3.17203L65.7048 3.78094L65.8597 9.31783C65.9019 11.0596 65.9582 12.7872 66.0004 14.5149C66.0426 16.0584 66.099 17.5878 66.1553 19.1313C66.1834 20.0659 66.2256 20.9864 66.2679 21.921V22.0201C66.3101 23.1247 66.3523 24.215 66.3945 25.3196C66.5212 29.0156 66.6479 32.9523 66.5353 36.9881C66.4649 39.7778 66.3242 42.2701 66.1271 44.5925C65.733 49.1523 64.9025 53.1315 63.6076 56.7425C61.4962 62.5768 58.2025 67.6605 53.7828 71.8521C50.0387 75.4065 45.8723 78.0262 41.3963 79.6122C38.7782 80.5469 36.3713 81 34.0488 81.0142H33.9362L33.9503 81Z" fill="white"/>
<path d="M3.50482 6.37238C5.29242 6.04668 7.06595 5.69266 8.85354 5.39528C10.8382 5.05542 12.8369 4.74388 14.8216 4.46066C16.4684 4.21993 18.1294 4.02168 19.7903 3.83759C21.423 3.6535 23.0558 3.48357 24.7027 3.35612C26.3776 3.22867 28.0667 3.10122 29.7417 3.04458C32.0079 2.98794 34.2741 2.94545 36.5402 3.0021C38.553 3.04458 40.5658 3.18619 42.5786 3.3278C44.3662 3.45524 46.1538 3.63934 47.9274 3.85175C49.8416 4.07832 51.77 4.33322 53.6702 4.61643C55.8942 4.95629 58.104 5.3528 60.3139 5.7493C61.1725 5.90507 62.017 6.08916 62.8193 6.24493C62.8897 9.04878 62.9601 11.8243 63.0446 14.5998C63.0868 16.1434 63.1431 17.6869 63.1994 19.2304C63.2698 21.2979 63.3683 23.3512 63.4387 25.4187C63.5794 29.2421 63.6779 33.0656 63.5794 36.9031C63.509 39.3813 63.3964 41.8594 63.1853 44.3376C62.8475 48.2177 62.1578 52.0411 60.8347 55.7229C58.8923 61.0899 55.8801 65.7629 51.7559 69.6855C48.4482 72.8292 44.7181 75.279 40.411 76.8084C38.356 77.5447 36.2306 78.0262 34.0348 78.0404C31.1774 78.0545 28.4608 77.4173 25.8146 76.3694C21.2541 74.5568 17.327 71.8096 13.9067 68.2977C9.07875 63.3273 5.91175 57.4364 4.44789 50.6392C3.92709 48.2035 3.5752 45.7395 3.34999 43.2614C3.04033 39.7495 2.92772 36.2234 2.95587 32.6974C2.96995 30.0776 3.01218 27.4579 3.06848 24.8239C3.15293 21.4395 3.26554 18.0409 3.34999 14.6565C3.40629 12.0792 3.44852 9.51608 3.49075 6.93881C3.49075 6.76888 3.49075 6.61311 3.49075 6.4007L3.50482 6.37238Z" fill="white"/>
<path d="M33.9503 81C30.9381 81 27.926 80.3911 24.7449 79.1166C19.9592 77.2191 15.6098 74.2736 11.8094 70.3511C6.60145 64.9841 3.15293 58.5409 1.57647 51.2339C1.05567 48.7841 0.67563 46.2635 0.422269 43.4879C0.112606 40.1601 -0.0281494 36.6058 1.74507e-06 32.6549C0.0140773 30.1343 0.0563041 27.472 0.112606 24.739C0.154833 23.0114 0.211136 21.2979 0.253362 19.5703V19.2163C0.309665 17.6727 0.351891 16.115 0.394118 14.5715C0.436345 12.8014 0.464496 11.0313 0.492647 9.27535L0.534874 6.88217C0.534874 6.7972 0.534874 6.7264 0.534874 6.65559V3.90839L2.96995 3.45525C3.40629 3.37028 4.60272 3.15787 4.60272 3.15787H4.65902C5.86952 2.91713 7.12225 2.69056 8.3609 2.47815C10.3878 2.13829 12.4147 1.81259 14.3993 1.52937C15.9054 1.31696 17.51 1.10455 19.4525 0.892133C21.3808 0.679721 22.9573 0.523951 24.4493 0.396504C26.1947 0.254895 27.8978 0.127448 29.6432 0.0849653C31.3745 0.0424828 32.8946 0.0141611 34.2881 0.0141611C35.0623 0.0141611 35.8224 0.0141611 36.5825 0.0424828C38.7219 0.0849653 40.8192 0.226574 42.7757 0.382343C44.4929 0.509791 46.2805 0.679721 48.2511 0.906294C50.3906 1.16119 52.3049 1.41608 54.1065 1.68514C56.0349 1.98252 58.0196 2.33654 59.7649 2.63392L60.8065 2.81801C61.4399 2.93129 62.0733 3.05874 62.6364 3.17203L65.7048 3.78094L65.8597 9.31783C65.9019 11.0596 65.9582 12.7872 66.0004 14.5149C66.0426 16.0584 66.099 17.5878 66.1553 19.1313C66.1834 20.0659 66.2256 20.9864 66.2679 21.921V22.0201C66.3101 23.1247 66.3523 24.215 66.3945 25.3196C66.5212 29.0156 66.6479 32.9523 66.5353 36.9881C66.4649 39.7778 66.3242 42.2701 66.1271 44.5925C65.733 49.1523 64.9025 53.1315 63.6076 56.7425C61.4962 62.5768 58.2025 67.6605 53.7828 71.8521C50.0387 75.4065 45.8723 78.0262 41.3963 79.6122C38.7782 80.5469 36.3713 81 34.0488 81.0142H33.9362L33.9503 81ZM1.675 4.84301V6.61311C1.675 6.7264 1.675 6.81136 1.675 6.89633L1.63277 9.28951C1.60462 11.0596 1.57647 12.8297 1.53424 14.5998C1.49201 16.1575 1.44979 17.701 1.40756 19.2587V19.6128C1.35126 21.3262 1.29496 23.0538 1.25273 24.7673C1.18235 27.5003 1.1542 30.1484 1.14012 32.6691C1.11197 36.5774 1.25273 40.0893 1.54832 43.403C1.7876 46.1219 2.15357 48.6 2.67436 51.0073C4.2086 58.1019 7.54452 64.3469 12.6117 69.5722C16.2995 73.3815 20.5222 76.242 25.1531 78.0687C28.2075 79.2724 31.0789 79.8671 33.9503 79.8671H34.0488C36.2446 79.8671 38.5249 79.414 41.0303 78.5219C45.3656 76.9783 49.3912 74.4435 53.0227 71.0024C57.3158 66.9241 60.525 61.9962 62.566 56.3318C63.8328 52.8199 64.6351 48.9399 65.0292 44.4792C65.2263 42.171 65.367 39.707 65.4374 36.9456C65.55 32.9523 65.4374 29.0297 65.2966 25.3479C65.2544 24.2575 65.2122 23.153 65.17 22.0626V21.9635C65.1277 21.0288 65.0855 20.1084 65.0574 19.1738C65.0011 17.6302 64.9448 16.1009 64.9025 14.5573C64.8462 12.8297 64.804 11.1021 64.7618 9.36032L64.6351 4.72972L62.4674 4.29073C61.8904 4.17745 61.271 4.05 60.6517 3.93671L59.6101 3.75262C57.8647 3.44108 55.8801 3.10122 53.9658 2.80385C52.1782 2.52063 50.2639 2.26573 48.1526 2.025C46.1961 1.79843 44.4226 1.6285 42.7194 1.50105C40.7629 1.35944 38.6797 1.21783 36.5825 1.16119C35.8224 1.14703 35.0623 1.13287 34.3022 1.13287C32.9228 1.13287 31.4167 1.16119 29.6995 1.20367C27.9682 1.24615 26.2791 1.3736 24.5619 1.51521C23.084 1.6285 21.5075 1.78427 19.5932 1.99668C17.6649 2.20909 16.0602 2.40734 14.5682 2.63392C12.5836 2.91713 10.5708 3.22867 8.54388 3.56853C7.30523 3.78094 6.06658 4.00752 4.85608 4.23409H4.79978C4.79978 4.23409 3.60335 4.47483 3.16701 4.54563L1.66092 4.82885L1.675 4.84301Z" fill="#FFC629"/>
<path d="M112.126 71.753H110.451V72.6593H112.042V73.8629H110.451V74.7976H112.126V76.0012H109.044V70.5493H112.126V71.753Z" fill="white"/>
<path d="M115.814 74.3727C116.11 74.6559 116.574 74.925 117.053 74.925C117.334 74.925 117.503 74.84 117.602 74.7409C117.686 74.6559 117.742 74.5427 117.742 74.401C117.742 74.2878 117.7 74.1745 117.587 74.0753C117.447 73.9479 117.236 73.8913 116.884 73.7921L116.518 73.6788C116.293 73.608 115.955 73.4806 115.744 73.2399C115.462 72.9425 115.434 72.546 115.434 72.2769C115.434 71.6114 115.687 71.2007 115.927 70.96C116.208 70.6767 116.658 70.4502 117.32 70.4502C117.855 70.4502 118.488 70.6201 118.995 70.8892L118.432 71.9937C118.01 71.6538 117.686 71.6255 117.503 71.6255C117.362 71.6255 117.179 71.6538 117.039 71.7955C116.954 71.8804 116.898 71.9654 116.898 72.0928C116.898 72.192 116.912 72.2628 116.968 72.3336C117.01 72.376 117.109 72.4752 117.447 72.5743L117.883 72.7017C118.221 72.815 118.587 72.9283 118.868 73.2399C119.15 73.5372 119.22 73.8346 119.22 74.217C119.22 74.7126 119.094 75.1941 118.714 75.5906C118.249 76.0579 117.686 76.1428 117.109 76.1428C116.771 76.1428 116.447 76.1145 116.039 75.9587C115.955 75.9304 115.603 75.7888 115.223 75.5198L115.828 74.3727H115.814Z" fill="white"/>
<path d="M124.583 71.753V76.0012H123.175V71.753H122.021V70.5493H125.737V71.753H124.583Z" fill="white"/>
<path d="M128.806 75.9021C128.693 75.803 128.552 75.6047 128.552 75.3073C128.552 75.01 128.693 74.8117 128.806 74.7126C129.003 74.5143 129.214 74.4577 129.397 74.4577C129.594 74.4577 129.819 74.5427 130.002 74.7126C130.143 74.8542 130.241 75.0383 130.241 75.3073C130.241 75.5764 130.143 75.7605 130.002 75.9021C129.833 76.072 129.622 76.157 129.411 76.157C129.228 76.157 129.017 76.1003 128.82 75.9021H128.806Z" fill="white"/>
<path d="M139.292 71.753H138.518V70.5493H140.7V76.0012H139.292V71.753Z" fill="white"/>
<path d="M145.007 76.0012L146.541 74.1603C146.316 74.2878 146.091 74.3302 145.823 74.3302C145.359 74.3302 144.95 74.1886 144.584 73.8346C144.148 73.3956 144.035 72.9 144.035 72.5177C144.035 71.9654 144.233 71.4839 144.584 71.1157C144.908 70.79 145.457 70.4219 146.358 70.4219C147.357 70.4219 147.892 70.8608 148.103 71.0732C148.455 71.4273 148.638 71.9229 148.638 72.4185C148.638 73.2399 148.146 73.9904 147.822 74.4152L146.611 75.9871H145.021L145.007 76.0012ZM145.753 71.8096C145.584 71.9795 145.485 72.2061 145.485 72.4327C145.485 72.6593 145.598 72.8858 145.739 73.0274C145.908 73.1832 146.147 73.2682 146.372 73.2682C146.569 73.2682 146.808 73.1974 146.977 73.0416C147.146 72.9 147.259 72.6309 147.259 72.4185C147.259 72.2061 147.146 71.9654 147.005 71.8096C146.865 71.668 146.625 71.5547 146.372 71.5547C146.203 71.5547 145.964 71.5972 145.753 71.8096Z" fill="white"/>
<path d="M155.775 76.0012H151.425L152.805 74.5568C153.297 74.047 153.663 73.5939 153.917 73.1691C154.057 72.9425 154.212 72.6734 154.212 72.3194C154.212 72.2628 154.212 71.9795 154.043 71.7955C153.959 71.7105 153.818 71.6255 153.649 71.6255C153.424 71.6255 153.269 71.7388 153.171 71.8521C153.044 72.022 152.988 72.3336 152.973 72.5177H151.524C151.524 71.8096 151.847 71.2857 152.129 71.0024C152.495 70.6343 152.988 70.4077 153.663 70.4077C154.48 70.4077 154.944 70.7334 155.197 70.9741C155.423 71.2007 155.732 71.6114 155.732 72.3194C155.732 73.0274 155.409 73.4806 154.93 73.9337L154.015 74.7834H155.789V75.9871L155.775 76.0012Z" fill="white"/>
<path d="M161.278 71.753H159.012V70.5493H163.46L160.349 76.0012H158.801L161.278 71.753Z" fill="white"/>
<path d="M86.4382 11.4703C85.467 10.1533 83.9046 9.45944 82.2859 9.45944C79.3863 9.45944 77.4298 11.6969 77.4298 14.5432C77.4298 17.3895 79.4145 19.5278 82.3562 19.5278C83.9046 19.5278 85.4529 18.7773 86.4382 17.5878V23.2946C84.8617 23.776 83.7357 24.1442 82.2577 24.1442C79.7241 24.1442 77.3031 23.1671 75.417 21.4395C73.4183 19.6128 72.4893 17.2337 72.4893 14.5149C72.4893 12.0084 73.4323 9.60105 75.1636 7.80262C76.9512 5.96171 79.5411 4.84301 82.1029 4.84301C83.6231 4.84301 85.0306 5.18287 86.4241 5.76346V11.4703H86.4382Z" fill="white"/>
<path d="M97.1215 9.36031V12.4191H102.456V16.4549H97.1215V19.6128H102.738V23.6486H92.3781V5.32447H102.738V9.36031H97.1215Z" fill="white"/>
<path d="M108.678 5.32447H113.421L122.092 16.5257H122.134V5.32447H126.877V23.6486H122.134L113.463 12.4191H113.421V23.6486H108.678V5.32447Z" fill="white"/>
<path d="M140.221 23.6486H135.492V9.36031H131.579V5.32447H144.134V9.36031H140.221V23.6486Z" fill="white"/>
<path d="M164.009 23.6486H158.111L153.649 16.5965H153.607V23.6486H148.877V5.32447H155.958C159.561 5.32447 162.292 7.0521 162.292 10.9605C162.292 13.4953 160.884 15.676 158.308 16.1434L164.037 23.6486H164.009ZM153.607 13.5378H154.071C155.62 13.5378 157.351 13.2404 157.351 11.2579C157.351 9.27535 155.606 8.97797 154.071 8.97797H153.607V13.5519V13.5378Z" fill="white"/>
<path d="M172.947 20.4624L171.694 23.6486H166.669L173.679 5.32447H178.844L185.699 23.6486H180.646L179.464 20.4624H172.947ZM176.254 10.9888H176.212L174.256 16.8231H178.197L176.269 10.9888H176.254Z" fill="white"/>
<path d="M194.328 19.6128H200V23.6486H189.584V5.32447H194.328V19.6128Z" fill="white"/>
<path d="M86.4522 35.1472C85.481 33.8302 83.9186 33.1222 82.3 33.1222C79.4004 33.1222 77.4439 35.3596 77.4439 38.2059C77.4439 41.0523 79.4285 43.1906 82.3703 43.1906C83.9186 43.1906 85.467 42.44 86.4522 41.2505V46.9715C84.8758 47.453 83.7497 47.8212 82.2718 47.8212C79.7382 47.8212 77.3172 46.8441 75.4311 45.1164C73.4183 43.2897 72.5033 40.9107 72.5033 38.1918C72.5033 35.6853 73.4464 33.278 75.1918 31.4795C76.9794 29.6386 79.5693 28.5199 82.131 28.5199C83.6512 28.5199 85.0588 28.8598 86.4522 29.4404V35.1614V35.1472Z" fill="white"/>
<path d="M95.165 44.1535L93.9123 47.3397H88.8873L95.897 29.0014H101.077L107.946 47.3397H102.893L101.71 44.1535H95.1791H95.165ZM98.4728 34.6657H98.4306L96.4741 40.5H100.415L98.4869 34.6657H98.4728Z" fill="white"/>
<path d="M116.729 47.3397H111.985V33.0372H108.072V29.0014H120.642V33.0372H116.729V47.3397Z" fill="white"/>
<path d="M135.097 36.0818V29.0014H139.827V47.3397H135.097V39.8203H128.257V47.3397H123.513V29.0014H128.257V36.0818H135.097Z" fill="white"/>
<path d="M162.714 37.8236C162.714 43.757 158.477 47.9344 152.636 47.9344C146.794 47.9344 142.558 43.757 142.558 37.8236C142.558 32.2725 147.4 28.3925 152.636 28.3925C157.872 28.3925 162.714 32.2867 162.714 37.8236ZM147.484 37.8519C147.484 41.0098 149.806 43.318 152.636 43.318C155.465 43.318 157.787 41.0098 157.787 37.8519C157.787 35.3171 155.465 33.0089 152.636 33.0089C149.806 33.0089 147.484 35.3171 147.484 37.8519Z" fill="white"/>
<path d="M170.202 43.3038H175.889V47.3397H165.473V29.0014H170.202V43.3038Z" fill="white"/>
<path d="M183.335 29.0014H178.591V47.3397H183.335V29.0014Z" fill="white"/>
<path d="M200 35.1472C199.029 33.8302 197.466 33.1222 195.848 33.1222C192.948 33.1222 190.992 35.3596 190.992 38.2059C190.992 41.0523 192.976 43.1906 195.918 43.1906C197.466 43.1906 199.015 42.44 200 41.2505V46.9715C198.424 47.453 197.297 47.8212 195.82 47.8212C193.286 47.8212 190.865 46.8441 188.979 45.1164C186.98 43.2897 186.051 40.9107 186.051 38.1918C186.051 35.6853 186.994 33.278 188.74 31.4795C190.527 29.6386 193.117 28.5199 195.679 28.5199C197.199 28.5199 198.607 28.8598 200 29.4404V35.1614V35.1472Z" fill="white"/>
<path d="M74.2206 58.7392H72.63V52.565H75.1636C75.8533 52.565 76.3741 52.7491 76.7401 53.1031C77.1061 53.4572 77.289 53.967 77.289 54.6184C77.289 55.2698 77.1061 55.7795 76.7401 56.1336C76.3741 56.4876 75.8533 56.6717 75.1636 56.6717H74.2206V58.7108V58.7392ZM74.2206 55.3972H74.7554C75.3466 55.3972 75.6281 55.1423 75.6281 54.6325C75.6281 54.1227 75.3325 53.8678 74.7554 53.8678H74.2206V55.4114V55.3972Z" fill="white"/>
<path d="M87.9865 52.565V58.7392H86.396V52.565H87.9865Z" fill="white"/>
<path d="M99.8522 53.9245V58.7392H98.2617V53.9245H96.9526V52.565H101.161V53.9245H99.8522Z" fill="white"/>
<path d="M112.464 53.9245V58.7392H110.873V53.9245H109.564V52.565H113.773V53.9245H112.464Z" fill="white"/>
<path d="M126.117 54.1511C125.948 54.0094 125.765 53.9103 125.596 53.8395C125.428 53.7687 125.259 53.7404 125.09 53.7404C124.879 53.7404 124.71 53.7829 124.583 53.882C124.456 53.9811 124.386 54.1086 124.386 54.2643C124.386 54.3776 124.414 54.4626 124.484 54.5334C124.555 54.6042 124.639 54.6608 124.738 54.7175C124.85 54.7741 124.963 54.8166 125.09 54.8591C125.216 54.9016 125.357 54.9441 125.484 54.9865C126.005 55.1565 126.385 55.3972 126.624 55.6804C126.863 55.9778 126.99 56.346 126.99 56.8275C126.99 57.139 126.934 57.4364 126.835 57.6913C126.723 57.9462 126.582 58.1727 126.371 58.3568C126.174 58.5409 125.92 58.6825 125.625 58.7816C125.329 58.8808 124.991 58.9374 124.625 58.9374C123.851 58.9374 123.133 58.7108 122.472 58.2435L123.161 56.9549C123.401 57.1673 123.64 57.3231 123.865 57.4364C124.104 57.5355 124.33 57.5921 124.555 57.5921C124.808 57.5921 125.005 57.5355 125.132 57.408C125.259 57.2948 125.329 57.1531 125.329 56.9974C125.329 56.8983 125.315 56.8275 125.287 56.7566C125.259 56.6858 125.202 56.6292 125.118 56.5726C125.048 56.5159 124.949 56.4593 124.822 56.4168C124.696 56.3743 124.555 56.3177 124.386 56.2469C124.175 56.1761 123.978 56.1052 123.781 56.0344C123.584 55.9636 123.401 55.8503 123.246 55.7229C123.091 55.5955 122.964 55.4255 122.866 55.2273C122.767 55.029 122.725 54.7741 122.725 54.4768C122.725 54.1794 122.781 53.8962 122.88 53.6413C122.978 53.3864 123.119 53.174 123.302 53.004C123.485 52.8199 123.71 52.6925 123.964 52.5934C124.217 52.4942 124.527 52.4518 124.85 52.4518C125.16 52.4518 125.47 52.4942 125.808 52.5792C126.145 52.6642 126.455 52.7916 126.765 52.9474L126.131 54.1935L126.117 54.1511Z" fill="white"/>
<path d="M136.266 52.565H138.645C139.208 52.565 139.63 52.7066 139.925 52.9757C140.221 53.2448 140.362 53.6413 140.362 54.1511C140.362 54.4626 140.305 54.7175 140.193 54.9299C140.08 55.1282 139.911 55.3122 139.686 55.4539C139.911 55.4963 140.108 55.5671 140.263 55.6521C140.418 55.7371 140.559 55.8504 140.657 55.9778C140.756 56.1052 140.826 56.261 140.868 56.4168C140.911 56.5867 140.939 56.7566 140.939 56.9407C140.939 57.224 140.883 57.4789 140.784 57.7054C140.685 57.932 140.545 58.1161 140.362 58.2719C140.179 58.4276 139.954 58.5409 139.7 58.6117C139.447 58.6825 139.151 58.725 138.828 58.725H136.266V52.5509V52.565ZM137.856 54.9865H138.152C138.645 54.9865 138.898 54.7883 138.898 54.3918C138.898 53.9953 138.645 53.797 138.152 53.797H137.856V54.9865ZM137.856 57.493H138.208C138.602 57.493 138.898 57.4364 139.067 57.3372C139.236 57.2381 139.32 57.0682 139.32 56.8416C139.32 56.615 139.236 56.4451 139.067 56.346C138.898 56.2469 138.602 56.1902 138.208 56.1902H137.856V57.493Z" fill="white"/>
<path d="M151.735 52.565V55.9212C151.735 56.1052 151.735 56.2893 151.749 56.4734C151.749 56.6575 151.805 56.8274 151.876 56.9832C151.946 57.139 152.044 57.2664 152.199 57.3514C152.34 57.4505 152.551 57.493 152.819 57.493C153.086 57.493 153.283 57.4505 153.438 57.3514C153.579 57.2523 153.691 57.139 153.762 56.9832C153.832 56.8274 153.874 56.6575 153.888 56.4734C153.888 56.2893 153.902 56.1052 153.902 55.9212V52.565H155.493V56.1336C155.493 57.0965 155.268 57.7904 154.831 58.2294C154.395 58.6684 153.719 58.8949 152.819 58.8949C151.918 58.8949 151.242 58.6684 150.806 58.2294C150.369 57.7904 150.144 57.0823 150.144 56.1336V52.565H151.735Z" fill="white"/>
<path d="M170.132 58.7392H168.147L166.627 56.3601V58.7392H165.036V52.565H167.514C167.851 52.565 168.147 52.6217 168.414 52.7208C168.668 52.8199 168.879 52.9615 169.048 53.1315C169.217 53.3014 169.343 53.5138 169.428 53.7404C169.512 53.967 169.555 54.2219 169.555 54.4767C169.555 54.9441 169.442 55.3264 169.217 55.6238C168.991 55.9212 168.654 56.1194 168.217 56.2185L170.146 58.7392H170.132ZM166.627 55.3264H166.922C167.232 55.3264 167.471 55.2556 167.64 55.1281C167.809 55.0007 167.894 54.8024 167.894 54.5617C167.894 54.321 167.809 54.1227 167.64 53.9953C167.471 53.8678 167.232 53.797 166.922 53.797H166.627V55.3122V55.3264Z" fill="white"/>
<path d="M181.969 55.2839H185.136C185.136 55.6096 185.136 55.907 185.094 56.1761C185.066 56.4451 185.01 56.6858 184.925 56.9266C184.812 57.2523 184.658 57.5355 184.461 57.7762C184.264 58.017 184.038 58.2294 183.771 58.3993C183.503 58.5692 183.222 58.6967 182.898 58.7816C182.589 58.8666 182.251 58.9091 181.913 58.9091C181.434 58.9091 180.998 58.8241 180.604 58.6684C180.21 58.5126 179.872 58.286 179.59 58.0028C179.309 57.7196 179.084 57.3797 178.929 56.9691C178.774 56.5726 178.69 56.1194 178.69 55.6379C178.69 55.1565 178.76 54.7175 178.915 54.321C179.07 53.9245 179.295 53.5846 179.576 53.2872C179.858 53.004 180.21 52.7775 180.604 52.6217C180.998 52.4659 181.448 52.381 181.941 52.381C182.574 52.381 183.137 52.5226 183.63 52.7916C184.109 53.0748 184.489 53.4997 184.77 54.0802L183.264 54.7033C183.123 54.3635 182.94 54.1227 182.715 53.9811C182.49 53.8395 182.237 53.7545 181.941 53.7545C181.702 53.7545 181.491 53.797 181.294 53.8962C181.096 53.9811 180.928 54.1086 180.787 54.2785C180.646 54.4484 180.533 54.6467 180.463 54.8733C180.379 55.114 180.35 55.3689 180.35 55.6521C180.35 55.907 180.379 56.1619 180.449 56.3743C180.519 56.6009 180.618 56.785 180.759 56.9549C180.899 57.1248 181.068 57.2523 181.265 57.3372C181.462 57.4222 181.702 57.4789 181.969 57.4789C182.124 57.4789 182.279 57.4647 182.42 57.4222C182.56 57.3939 182.701 57.3231 182.814 57.2523C182.926 57.1673 183.025 57.0682 183.109 56.9407C183.18 56.8133 183.236 56.6575 183.264 56.4876H181.955V55.2414L181.969 55.2839Z" fill="white"/>
<path d="M195.988 54.9441H198.283V52.565H199.873V58.7392H198.283V56.1902H195.988V58.7392H194.398V52.565H195.988V54.9441Z" fill="white"/>
<path d="M200.014 64.092H72.5033V65.2248H200.014V64.092Z" fill="#FFC629"/>
<path d="M32.1627 18.5224V16.0726C32.022 15.9876 31.8953 15.8743 31.7827 15.7469V17.5594C31.7827 17.9276 31.9234 18.2675 32.1486 18.5224H32.1627Z" fill="#0F2D52"/>
<path d="M30.544 64.1911H27.8415V66.91H30.544V64.1911Z" fill="#0F2D52"/>
<path d="M32.0079 37.5404H34.3867L33.2184 34.0851L32.0079 37.5404Z" fill="#0F2D52"/>
<path d="M33.7814 18.8906V16.2991C33.6125 16.3558 33.4295 16.3841 33.2325 16.3841C33.0354 16.3841 32.8524 16.3416 32.6835 16.2991V18.8906C32.8524 18.9614 33.0354 19.0038 33.2325 19.0038C33.4295 19.0038 33.6125 18.9614 33.7814 18.8906Z" fill="#0F2D52"/>
<path d="M30.544 61.0899H27.8415V63.8087H30.544V61.0899Z" fill="#0F2D52"/>
<path d="M30.544 60.7075V58.7958C30.5159 57.408 29.1928 56.6858 29.1928 56.6858C29.1928 56.6858 27.8697 57.408 27.8415 58.7958V60.7075H30.544Z" fill="#0F2D52"/>
<path d="M33.2325 20.3491L33.4154 20.8589L33.7955 21.9351V19.4428C33.6125 19.4995 33.4295 19.5278 33.2465 19.5278C33.0636 19.5278 32.8665 19.4853 32.6976 19.4428V21.9351L33.0776 20.8589L33.2606 20.3491H33.2325Z" fill="#0F2D52"/>
<path d="M38.553 61.0899H35.8505V63.8087H38.553V61.0899Z" fill="#0F2D52"/>
<path d="M35.8505 60.7075H38.553V58.7958C38.5249 57.408 37.2018 56.6858 37.2018 56.6858C37.2018 56.6858 35.8787 57.408 35.8505 58.7958V60.7075Z" fill="#0F2D52"/>
<path d="M20.0155 65.9329C19.6073 66.032 19.2976 66.386 19.2272 66.7967V71.4981H20.8037V66.7967C20.7333 66.3719 20.4237 66.032 20.0155 65.9329Z" fill="#0F2D52"/>
<path d="M34.6682 17.5594V15.7469C34.5556 15.8743 34.4289 15.9734 34.2881 16.0726V18.5224C34.5133 18.2675 34.6541 17.9276 34.6541 17.5594H34.6682Z" fill="#0F2D52"/>
<path d="M38.553 64.1911H35.8505V66.91H38.553V64.1911Z" fill="#0F2D52"/>
<path d="M34.6682 18.8764C34.5556 19.0038 34.4289 19.1171 34.2881 19.2021V23.3795L34.6682 24.0168V18.8906V18.8764Z" fill="#0F2D52"/>
<path d="M32.1627 19.2021C32.022 19.1171 31.8953 19.0038 31.7827 18.8764V24.0026L32.1627 23.3654V19.1879V19.2021Z" fill="#0F2D52"/>
<path d="M38.553 67.2781H35.8505V69.997H38.553V67.2781Z" fill="#0F2D52"/>
<path d="M38.5671 70.3794H35.8646V73.0983H38.5671V70.3794Z" fill="#0F2D52"/>
<path d="M34.8652 70.3794H31.5293V73.0983H34.8652V70.3794Z" fill="#0F2D52"/>
<path d="M34.8512 67.2781H31.5152V69.997H34.8512V67.2781Z" fill="#0F2D52"/>
<path d="M63.4387 25.4187C63.3683 23.3512 63.2838 21.2979 63.1994 19.2304C63.1431 17.6869 63.0868 16.1434 63.0446 14.5998C62.9601 11.8243 62.8897 9.04878 62.8193 6.24493C62.017 6.08916 61.1725 5.90507 60.3139 5.7493C58.104 5.36696 55.8942 4.97045 53.6702 4.61643C51.7559 4.31906 49.8416 4.06416 47.9274 3.85175C46.1538 3.63934 44.3662 3.46941 42.5786 3.3278C40.5658 3.17203 38.553 3.04458 36.5402 3.0021C34.274 2.95962 32.0079 2.98794 29.7417 3.04458C28.0526 3.08706 26.3776 3.21451 24.7027 3.35612C23.0699 3.48357 21.423 3.6535 19.7903 3.83759C18.1294 4.02168 16.4825 4.21993 14.8216 4.46066C12.8229 4.74388 10.8382 5.05542 8.85354 5.39528C7.06594 5.69266 5.29242 6.04668 3.50482 6.37238C3.50482 6.58479 3.50482 6.75472 3.50482 6.91049C3.46259 9.48776 3.43444 12.0509 3.36406 14.6281C3.27961 18.0126 3.15293 21.4112 3.08255 24.7956C3.02625 27.4154 2.98402 30.0351 2.96995 32.6691C2.95587 36.1951 3.0544 39.7212 3.36406 43.233C3.58927 45.7112 3.92709 48.1752 4.46196 50.6108C5.92582 57.408 9.09283 63.299 13.9208 68.2694C14.6668 69.0482 15.455 69.7705 16.2432 70.4643V44.904C16.2432 44.904 14.9623 42.6808 17.0455 40.9673L21.0852 29.9785L23.5907 37.8236L31.276 24.8523V17.5594C31.276 17.5594 31.276 17.5453 31.276 17.5311V14.4016C31.276 13.7219 31.6138 13.1413 32.1346 12.7872L33.0636 9.44528L33.1339 9.24703C33.0354 9.20455 32.9791 9.10542 32.9791 8.99213C32.9791 8.87885 33.0354 8.79388 33.1339 8.7514V7.33531H32.3175V7.09458H33.1339V6.41486H33.3732V7.09458H34.1896V7.33531H33.3732V8.7514C33.4577 8.79388 33.528 8.89301 33.528 8.99213C33.528 9.09126 33.4577 9.20455 33.3591 9.24703L33.4295 9.44528L34.3585 12.7872C34.8793 13.1413 35.2171 13.736 35.2171 14.4016C35.2171 14.4157 35.2171 14.4299 35.2171 14.4582V17.5311C35.2171 17.5311 35.2171 17.5311 35.2171 17.5594V24.8523L42.9024 37.8236L45.4078 29.9785L49.4475 40.9673C51.5167 42.6808 50.2498 44.904 50.2498 44.904V71.0308C50.7706 70.5918 51.2914 70.1386 51.7841 69.6572C55.9082 65.7346 58.9204 61.0615 60.8628 55.6946C62.1859 52.0128 62.8897 48.1893 63.2135 44.3093C63.4246 41.8453 63.5513 39.353 63.6076 36.8748C63.7061 33.0514 63.6076 29.228 63.4668 25.3904L63.4387 25.4187Z" fill="#0F2D52"/>
<path d="M46.4776 65.9329C46.0694 66.032 45.7597 66.386 45.6893 66.7967V71.4981H47.2658V66.7967C47.1954 66.3719 46.8858 66.032 46.4776 65.9329Z" fill="#0F2D52"/>
<path d="M30.5581 70.3794H27.8556V73.0983H30.5581V70.3794Z" fill="#0F2D52"/>
<path d="M30.544 67.2781H27.8415V69.997H30.544V67.2781Z" fill="#0F2D52"/>
<path d="M31.6138 49.2372H34.7948V45.4138H35.9068V42.2418H34.3867V40.7832H32.0079V42.2418H30.5581V45.4138H31.6138V49.2372Z" fill="#0F2D52"/>
<path d="M34.8652 60.7075V55.2556C34.823 53.528 33.1902 52.6358 33.1902 52.6358C33.1902 52.6358 31.5575 53.528 31.5152 55.2556V60.7075H34.8652Z" fill="#0F2D52"/>
<path d="M34.8512 61.0899H31.5152V63.8087H34.8512V61.0899Z" fill="#0F2D52"/>
<path d="M34.8512 64.1911H31.5152V66.91H34.8512V64.1911Z" fill="#0F2D52"/>
</g>
<defs>
<clipPath id="clip0_17749_3124">
<rect width="200" height="81" fill="white"/>
</clipPath>
</defs>
</svg>
