<svg aria-label="Duquesne University" width="260" height="62" fill="none" xmlns="http://www.w3.org/2000/svg"><g clip-path="url(#a)"><path d="M47.212 5.622H4.832V56.71h42.38V5.622Z" fill="#fff"/><path d="M60.952 17.645c0 3.213-.149 6.464-.3 9.68a75.128 75.128 0 0 1 5.009-.186c1.682 0 3.327.186 5.006.186a12.84 12.84 0 0 0 13.606-13.42c0-7.7-3.587-12.375-12.333-12.375-1.87 0-3.773.19-5.644.19s-3.774-.075-5.645-.19c.152 3.216.3 6.47.3 9.683v6.432Zm3.064-6.432c0-2.69.074-5.345.223-7.737 1.91-.24 3.834-.365 5.759-.375 6.128 0 10.614 2.132 10.614 10.805 0 9.868-5.98 12.037-11.475 12.037a27.54 27.54 0 0 1-4.898-.375c-.149-2.578-.223-5.27-.223-7.923v-6.432ZM109.414 13.681c0 4.71 0 12.372-8.188 12.372-8.334 0-8.334-6.615-8.334-11.7 0-5.53.223-10.615.45-12.82a7.61 7.61 0 0 1-1.608.185 11.487 11.487 0 0 1-1.946-.186c.074 2.17.223 5.568.223 9.68 0 1.871-.186 3.59-.186 5.909 0 7.25 3.29 10.692 10.691 10.692a9.91 9.91 0 0 0 10.654-10.767c.075-5.456.375-12.037.673-15.514a3.74 3.74 0 0 1-1.122.186 6.893 6.893 0 0 1-1.53-.186c.223 1.46.223 5.048.223 12.15M169.445 13.681c0 4.71 0 12.372-8.182 12.372-8.336 0-8.336-6.615-8.336-11.7 0-5.53.22-10.615.446-12.82a7.563 7.563 0 0 1-1.605.185 11.421 11.421 0 0 1-1.942-.186c.074 2.17.22 5.568.22 9.68 0 1.871-.186 3.59-.186 5.909 0 7.25 3.287 10.692 10.688 10.692a9.907 9.907 0 0 0 10.109-6.525 9.917 9.917 0 0 0 .545-4.242c.074-5.456.375-12.037.675-15.514a3.747 3.747 0 0 1-1.124.186 6.924 6.924 0 0 1-1.531-.186c.223 1.46.223 5.048.223 12.15M178.964 17.606c0 3.216-.152 6.466-.303 9.72 2.283-.112 4.52-.186 6.8-.186 2.289 0 4.526.074 6.735.186a5.343 5.343 0 0 1-.118-1.085c.002-.388.042-.775.118-1.155-3.349.408-6.724.57-10.097.483-.037-.933-.074-2.767-.074-5.608 0-3.588 0-4.524.037-5.42 1.8 0 6.506.075 9.083.338a5.588 5.588 0 0 1-.108-1.124 5.898 5.898 0 0 1 .108-1.156c-2.202.186-4.668.372-9.083.372 0-.933-.037-2.99-.037-4.933 0-1.834.115-3.142.149-4.747 4.86 0 6.691.26 9.833.484a5.685 5.685 0 0 1 0-2.244c-2.209.115-4.412.186-6.658.186-2.237 0-4.445-.071-6.688-.186.151 3.18.303 6.433.303 9.646v6.429ZM196.301 22.354a11.199 11.199 0 0 1-.707 3.328 9.087 9.087 0 0 0 6.165 2.132 8.44 8.44 0 0 0 8.443-5.02c.47-1.07.712-2.227.712-3.396 0-8.26-11.773-5.341-11.773-12.335a4.554 4.554 0 0 1 1.395-3.374 4.544 4.544 0 0 1 3.426-1.26 4.7 4.7 0 0 1 4.449 3.513h.449a11.37 11.37 0 0 1 1.007-3.139 8.252 8.252 0 0 0-5.533-1.757 7.213 7.213 0 0 0-8.108 7.065c0 8.784 11.779 5.831 11.779 12.71a5.17 5.17 0 0 1-1.48 3.888 5.158 5.158 0 0 1-3.867 1.534 6.435 6.435 0 0 1-5.902-3.889h-.455ZM237.75 27.812c-.038-1.679-.112-9.943-.112-13.757 0-2.915.375-10.318.595-12.524a4.43 4.43 0 0 1-1.193.186 5.044 5.044 0 0 1-1.273-.186c.304 5.757.304 13.048.304 19.74-4.564-4.6-12.82-13.608-18.92-20.226h-.592c.112 1.685.112 5.31.112 10.02 0 4.936-.486 14.504-.784 16.261a6.079 6.079 0 0 1 1.379-.186c.443.004.883.067 1.31.186-.189-1.497-.334-9.385-.334-12.598 0-3.963.068-6.207.111-7.588 6.388 6.8 13.191 13.98 18.873 20.672h.524ZM245.172 17.606c0 3.216-.148 6.466-.297 9.72a138.31 138.31 0 0 1 6.8-.186c2.28 0 4.523.074 6.726.186a5.563 5.563 0 0 1-.112-1.085c.002-.387.039-.774.112-1.155-3.347.408-6.72.57-10.09.483-.034-.933-.075-2.767-.075-5.608 0-3.588 0-4.524.041-5.42 1.79 0 6.499.075 9.083.338a5.745 5.745 0 0 1-.118-1.124c.002-.389.042-.776.118-1.156-2.209.186-4.678.372-9.083.372 0-.933-.041-2.99-.041-4.933 0-1.834.115-3.142.152-4.747 4.855 0 6.689.26 9.827.484a5.685 5.685 0 0 1 0-2.244 127.58 127.58 0 0 1-6.651.186c-2.243 0-4.449-.071-6.689-.186.149 3.18.297 6.433.297 9.646v6.429ZM80.425 46.834c0 4.706 0 12.375-8.185 12.375-8.337 0-8.337-6.619-8.337-11.703 0-5.537.226-10.618.45-12.821a7.607 7.607 0 0 1-1.605.182 11.48 11.48 0 0 1-1.946-.182c.072 2.168.223 5.567.223 9.682 0 1.866-.186 3.588-.186 5.906 0 7.253 3.29 10.69 10.688 10.69a9.905 9.905 0 0 0 10.11-6.523 9.91 9.91 0 0 0 .544-4.241c.078-5.46.375-12.038.676-15.514a3.781 3.781 0 0 1-1.125.182 6.97 6.97 0 0 1-1.533-.182c.226 1.456.226 5.044.226 12.149ZM111.059 60.964c-.037-1.686-.111-9.943-.111-13.757 0-2.916.375-10.318.601-12.524a4.361 4.361 0 0 1-1.199.182 4.806 4.806 0 0 1-1.267-.182c.297 5.757.297 13.05.297 19.74-4.563-4.601-12.822-13.611-18.913-20.227h-.6c.114 1.683.114 5.308.114 10.02 0 4.933-.487 14.505-.787 16.258.454-.11.918-.171 1.385-.183.441.007.88.068 1.307.183-.186-1.493-.338-9.379-.338-12.595 0-3.963.078-6.203.115-7.588 6.391 6.804 13.194 13.98 18.873 20.673h.523ZM118.039 50.795c0 3.214-.152 6.47-.304 9.68a9.124 9.124 0 0 1 3.665 0c-.148-3.21-.3-6.466-.3-9.68v-6.429c0-3.219.152-6.466.3-9.682a9.278 9.278 0 0 1-3.665 0c.152 3.216.304 6.463.304 9.682v6.43ZM135.293 60.475c.4-.12.814-.182 1.23-.186.42.008.836.07 1.24.186a474.024 474.024 0 0 1 10.765-25.791c-.454.115-.92.177-1.388.182a5.823 5.823 0 0 1-1.378-.182c-1.571 4.898-5.753 16.037-8.483 22.095-3.144-7.554-6.323-15.48-8.528-22.095a10.414 10.414 0 0 1-3.885 0c3.624 8.598 8.188 19.625 10.427 25.791ZM152.3 50.756c0 3.213-.148 6.47-.297 9.72a142.37 142.37 0 0 1 6.8-.186c2.277 0 4.526.078 6.729.186a5.532 5.532 0 0 1-.112-1.081c.002-.39.039-.779.112-1.162-3.347.41-6.72.573-10.09.486-.037-.932-.078-2.767-.078-5.608 0-3.585 0-4.52.04-5.419 1.794 0 6.5.071 9.081.335a6.236 6.236 0 0 1-.115-1.116c.004-.39.042-.779.115-1.162-2.203.186-4.672.372-9.081.372 0-.933-.04-2.99-.04-4.933 0-1.834.115-3.141.149-4.746 4.858 0 6.692.263 9.833.483a5.685 5.685 0 0 1 0-2.243c-2.206.114-4.415.185-6.651.185-2.243 0-4.452-.07-6.692-.185.149 3.179.297 6.432.297 9.645v6.43ZM170.466 50.795c0 3.214-.146 6.47-.301 9.68a9.124 9.124 0 0 1 3.665 0c-.146-3.21-.301-6.466-.301-9.68v-2.73h1.422a108.612 108.612 0 0 1 9.679 12.41c.716-.116 1.44-.178 2.165-.186.753.008 1.505.07 2.249.186-2.165-2.426-8.414-10.463-10.245-12.744 2.844-.378 7.661-2.32 7.661-7.142 0-4.446-3.547-5.905-7.769-5.905-1.425 0-2.841.182-4.263.182-1.422 0-2.838-.07-4.263-.182.155 3.216.301 6.466.301 9.682v6.43Zm3.063-6.429c0-2.692.112-5.385.224-8.115a35.897 35.897 0 0 1 3.63-.182c2.538 0 5.79.97 5.79 4.895 0 4.446-4.073 5.72-7.134 5.72a12.102 12.102 0 0 1-2.51-.19v-2.128ZM191.497 55.505a11.2 11.2 0 0 1-.712 3.328 9.11 9.11 0 0 0 6.171 2.132 8.442 8.442 0 0 0 9.154-8.413c0-8.26-11.775-5.345-11.775-12.335a4.56 4.56 0 0 1 1.395-3.376 4.547 4.547 0 0 1 3.429-1.262 4.7 4.7 0 0 1 4.445 3.514h.449a11.862 11.862 0 0 1 1.007-3.14 8.236 8.236 0 0 0-5.527-1.76 7.216 7.216 0 0 0-8.113 7.069c0 8.784 11.775 5.83 11.775 12.71a5.154 5.154 0 0 1-1.479 3.889 5.16 5.16 0 0 1-3.868 1.533 6.44 6.44 0 0 1-5.902-3.889h-.449ZM210.932 50.795c0 3.214-.149 6.47-.301 9.68a9.138 9.138 0 0 1 3.668 0c-.151-3.21-.3-6.466-.3-9.68v-6.429c0-3.219.149-6.466.3-9.682a9.293 9.293 0 0 1-3.668 0c.152 3.216.301 6.463.301 9.682v6.43ZM225.986 50.795c0 3.214-.151 6.47-.3 9.68a9.124 9.124 0 0 1 3.665 0c-.149-3.21-.304-6.466-.304-9.68v-6.429c0-2.58.044-5.159.115-7.737a74.335 74.335 0 0 1 8.002.41 4.107 4.107 0 0 1-.189-1.16c.006-.405.07-.808.189-1.195a278.55 278.55 0 0 1-9.644.182c-3.219 0-6.431-.07-9.644-.182.114.376.178.765.189 1.158a4.256 4.256 0 0 1-.189 1.196 74.151 74.151 0 0 1 7.999-.409c.068 2.578.111 5.156.111 7.737v6.43ZM247.276 49.86c0 4.001 0 7.964-.3 10.613a11.253 11.253 0 0 1 1.834-.183c.612.01 1.223.072 1.825.183-.18-2.314-.292-7.362-.292-11.024 1.605-3.142 4.297-7.48 9.043-14.767a5.9 5.9 0 0 1-2.915 0 126.933 126.933 0 0 1-7.063 12.936c-2.578-4.447-4.932-8.673-7.104-12.936a11.628 11.628 0 0 1-4.108 0c1.571 2.358 7.587 12.598 9.08 15.179" fill="#012169"/><path d="m22.274 23.752-.03-9.131s15.539-1.605 15.486 8.36a17.6 17.6 0 0 1-15.456.77ZM37.75 37.14a20.667 20.667 0 0 0-15.475-.706V25.369a20.396 20.396 0 0 0 15.379-.694l.077 11.91.019.555Zm-15.496 8.065.021-7.157a18.544 18.544 0 0 1 15.546.76c.075 2.042.28 4.077.614 6.094a19.388 19.388 0 0 0-4.257 3.238 31.578 31.578 0 0 0-11.924-2.935ZM8.739.018l34.4-.019 8.777 8.772v44.45L43.139 62H8.79L0 53.206V8.756L8.74.017Zm2.122 46.876c7.931-6.008 7.3-9.552 7.3-9.552V16.7a8.08 8.08 0 0 0-6.042 7.355v2.6s-4.427 2.569-4.207 6.023c0 0 4.207-2.559 4.207.32l-.028 10.38a5.609 5.609 0 0 1-1.23 3.516Zm9.143-32.335.024 30.801A13.009 13.009 0 0 0 8.324 56.035s7.098-8.187 22.622-.989a19.38 19.38 0 0 1 14.935-9.831 19.158 19.158 0 0 1-1.936-7.768V21.329A13.643 13.643 0 0 0 30.558 7.686H13.03a20.776 20.776 0 0 1-7.125-1.143l2.732 5.137a5.662 5.662 0 0 0 5.403 2.879h5.964Z" fill="#BA0C2F"/><path d="M116.836 14.428c0 8.487 5.756 13.385 13.978 13.385.362.007.724-.006 1.084-.04 3.101 2.544 5.871 5.048 8.597 7.551a4.087 4.087 0 0 1 2.912-1.53c-3.023-2.132-5.793-4.301-8.442-6.43a12.366 12.366 0 0 0 9.867-12.936c0-8.487-5.756-13.382-14.018-13.382-8.222 0-13.978 4.895-13.978 13.382Zm24.335 0c0 8.3-4.486 12-10.357 12-5.833 0-10.316-3.7-10.316-12s4.483-11.997 10.316-11.997c5.871 0 10.357 3.7 10.357 11.997Z" fill="#012169"/><path d="M60.804 30.61v1.032H260v-1.033H60.804Z" fill="#012169"/></g><defs><clipPath id="a"><path fill="#fff" d="M0 0h260v62H0z"/></clipPath></defs></svg>