<svg xmlns="http://www.w3.org/2000/svg" xmlns:xlink="http://www.w3.org/1999/xlink" width="49.119" height="73.209" viewBox="0 0 49.119 73.209"><defs><clipPath id="a"><rect width="49.119" height="73.209" fill="#fff"></rect></clipPath></defs><g transform="translate(-32 -30)"><g transform="translate(32 30)"><g clip-path="url(#a)"><path d="M47.512,187.015H2.579a2.019,2.019,0,1,1,0-4.038H47.512a2.019,2.019,0,1,1,0,4.038" transform="translate(-0.412 -134.607)" fill="#fff"></path><path d="M47.512,156.54H2.579a2.019,2.019,0,1,1,0-4.039H47.512a2.019,2.019,0,1,1,0,4.039" transform="translate(-0.412 -112.188)" fill="#fff"></path><path d="M26.357,4.039H2.579A2.019,2.019,0,0,1,2.579,0H26.357a2.019,2.019,0,1,1,0,4.039" transform="translate(-0.412)" fill="#fff"></path><path d="M26.357,34.595H2.579a2.019,2.019,0,0,1,0-4.039H26.357a2.019,2.019,0,0,1,0,4.039" transform="translate(-0.412 -22.478)" fill="#fff"></path><path d="M26.357,65.151H2.579a2.019,2.019,0,0,1,0-4.039H26.357a2.019,2.019,0,0,1,0,4.039" transform="translate(-0.412 -44.957)" fill="#fff"></path><path d="M26.357,95.707H2.579a2.019,2.019,0,0,1,0-4.039H26.357a2.019,2.019,0,0,1,0,4.039" transform="translate(-0.412 -67.435)" fill="#fff"></path><path d="M26.357,126.262H2.579a2.019,2.019,0,1,1,0-4.038H26.357a2.019,2.019,0,1,1,0,4.038" transform="translate(-0.412 -89.914)" fill="#fff"></path><path d="M26.357,126.262H2.579a2.019,2.019,0,1,1,0-4.038H26.357a2.019,2.019,0,1,1,0,4.038" transform="translate(116.588 -300.914)" fill="#fff"></path><path d="M49.119,248.518v-2.261h-5.3v-7.951H40.978v10.212Zm-9.972,0v-2.232H33.793v-1.809H39v-2.145H33.793v-1.794h5.354v-2.232h-8.2v10.212Zm-12.822,0,3.691-10.212H26.938l-2.582,7.586-.146,1.211h-.292l-.131-1.211-2.6-7.586H18.111L21.8,248.518Zm-8.981,0v-2.232H11.989v-1.809H17.2v-2.145H11.989v-1.794h5.354v-2.232h-8.2v10.212Zm-9.2,0v-2.261h-5.3v-7.951H0v10.212Z" transform="translate(0 -175.309)" fill="#fff"></path></g></g></g></svg>