<svg xmlns="http://www.w3.org/2000/svg" viewBox="0 0 1200 760" role="img" aria-labelledby="title desc">
  <title id="title">Embedded recovery and sensor validation lab</title>
  <desc id="desc">A technical visual representing Arduino SWD recovery, Nordic QDEC testing, firmware logs, encoder pulses, and BLE-adjacent device work.</desc>
  <defs>
    <linearGradient id="signal" x1="0" x2="1" y1="0" y2="0">
      <stop offset="0" stop-color="#ff2b1f"/>
      <stop offset=".5" stop-color="#f4efe6"/>
      <stop offset="1" stop-color="#d6aa58"/>
    </linearGradient>
    <filter id="shadow" x="-20%" y="-20%" width="140%" height="140%">
      <feDropShadow dx="0" dy="26" stdDeviation="24" flood-color="#000" flood-opacity=".48"/>
    </filter>
  </defs>
  <rect width="1200" height="760" fill="#050504"/>
  <path d="M0 124h1200M0 308h1200M0 492h1200M0 676h1200M124 0v760M308 0v760M492 0v760M676 0v760M860 0v760M1044 0v760" stroke="#f4efe6" stroke-opacity=".065"/>
  <rect x="116" y="86" width="968" height="588" fill="#0d0c0a" stroke="#f4efe6" stroke-opacity=".16" filter="url(#shadow)"/>
  <rect x="116" y="86" width="968" height="7" fill="url(#signal)"/>
  <text x="156" y="164" fill="#f4efe6" font-family="Inter, Arial, sans-serif" font-size="52" font-weight="900">embedded / recovery</text>
  <text x="158" y="205" fill="#91887b" font-family="Inter, Arial, sans-serif" font-size="18" font-weight="700">ARDUINO + NORDIC SOURCE EVIDENCE</text>
  <g fill="none" stroke="#f4efe6" stroke-opacity=".82" stroke-width="3" stroke-linejoin="round">
    <rect x="184" y="300" width="276" height="202" rx="6"/>
    <circle cx="226" cy="342" r="12"/>
    <circle cx="418" cy="342" r="12"/>
    <circle cx="226" cy="462" r="12"/>
    <circle cx="418" cy="462" r="12"/>
    <rect x="276" y="360" width="92" height="78"/>
    <path d="M308 300v-46h372v58"/>
    <rect x="680" y="276" width="304" height="250" rx="6"/>
    <path d="M720 350h218M720 390h96M842 390h96M720 430h218"/>
  </g>
  <g fill="none" stroke="#ff2b1f" stroke-width="5" stroke-linecap="square">
    <path d="M166 588h54v-46h54v46h54v-46h54v46h54v-46h54v46h54"/>
    <path d="M640 588h44c24 0 24-46 48-46s24 46 48 46 24-46 48-46 24 46 48 46 24-46 48-46 24 46 48 46h50"/>
  </g>
  <g font-family="Inter, Arial, sans-serif" font-weight="900" font-size="24">
    <text x="190" y="554" fill="#f4efe6">swd bootloader recovery</text>
    <text x="704" y="554" fill="#f4efe6">qdec angular velocity</text>
  </g>
  <g font-family="ui-monospace, SFMono-Regular, Menlo, Monaco, Consolas, monospace" font-size="18" font-weight="800">
    <text x="156" y="635" fill="#d6aa58">C</text>
    <text x="204" y="635" fill="#91887b">Arduino</text>
    <text x="322" y="635" fill="#91887b">Nordic SDK</text>
    <text x="484" y="635" fill="#91887b">SWD</text>
    <text x="560" y="635" fill="#91887b">QDEC</text>
    <text x="646" y="635" fill="#91887b">BLE timing</text>
  </g>
</svg>
