<?xml version="1.0" encoding="UTF-8"?>
<svg xmlns="http://www.w3.org/2000/svg" width="29.2" height="29.45" viewBox="0 0 29.2 29.45">
  <defs>
    <radialGradient id="hsfl-plus-fill" cx="0" cy="0" gradientTransform="matrix(0.015 0 0 0.015 13.2 7.7)" gradientUnits="userSpaceOnUse" r="819.2">
      <stop offset="0.0039215686" stop-color="#959595"/>
      <stop offset="0.1607843137" stop-color="#8292a8"/>
      <stop offset="1" stop-color="#444855"/>
    </radialGradient>
    <radialGradient id="hsfl-plus-shadow" cx="0" cy="0" gradientTransform="matrix(0.018 0 0 0.018 14.6 14.85)" gradientUnits="userSpaceOnUse" r="819.2">
      <stop offset="0.0039215686" stop-color="#959595" stop-opacity=".4"/>
      <stop offset="0.1607843137" stop-color="#8292a8" stop-opacity=".4"/>
      <stop offset="0.7333333333" stop-color="#000" stop-opacity=".4"/>
      <stop offset="1" stop-color="#000" stop-opacity="0"/>
    </radialGradient>
  </defs>
  <g transform="translate(-165.35 -4.1)">
    <path d="M183.55 17.4h-3.65v3.65h-1.7V17.4h-3.65v-1.7h3.65v-3.65h1.7v3.65h3.65v1.7" fill="#fff" fill-rule="evenodd"/>
    <path d="M183.55 17.4v-1.7h-3.65v-3.65h-1.7v3.65h-3.65v1.7h3.65v3.65h1.7V17.4h3.65m7.35-.6q0 4.9-3.5 8.35-3.45 3.5-8.35 3.5-4.9 0-8.4-3.5-3.45-3.45-3.45-8.35t3.45-8.4q3.5-3.45 8.4-3.45t8.35 3.45q3.5 3.5 3.5 8.4" fill="url(#hsfl-plus-fill)" fill-rule="evenodd"/>
    <path d="m194.55 19.05-.1 2q-.65 4.7-4.15 8.2-2.85 2.85-6.35 3.8l-3.6.5h-.4l-2.05-.1-1.95-.4-1.15-.35q-2.85-1.15-5.2-3.45-4.25-4.25-4.25-10.3 0-5.95 4.25-10.3 4.35-4.3 10.35-4.3t10.35 4.3q3.4 3.5 4.1 8l.15 2.3v.1m-3.65-2.25q0-4.9-3.5-8.4-3.45-3.45-8.35-3.45-4.9 0-8.4 3.45-3.45 3.5-3.45 8.4t3.45 8.35q3.5 3.5 8.4 3.5t8.35-3.5q3.5-3.45 3.5-8.35" fill="url(#hsfl-plus-shadow)" fill-rule="evenodd"/>
    <path d="M190.9 16.8q0 4.9-3.5 8.35-3.45 3.5-8.35 3.5-4.9 0-8.4-3.5-3.45-3.45-3.45-8.35t3.45-8.4q3.5-3.45 8.4-3.45t8.35 3.45q3.5 3.5 3.5 8.4Z" fill="none" stroke="#fff" stroke-linecap="round" stroke-linejoin="round" stroke-width="1.75"/>
  </g>
</svg>
